<?xml version="1.0" encoding="UTF-8" standalone="no"?>
<!DOCTYPE svg PUBLIC "-//W3C//DTD SVG 1.1//EN"
 "http://www.w3.org/Graphics/SVG/1.1/DTD/svg11.dtd">
<!-- Generated by graphviz version 2.40.1 (20161225.0304)
 -->
<!-- Title: models_diagram Pages: 1 -->
<svg width="409pt" height="464pt"
 viewBox="0.00 0.00 409.00 464.00" xmlns="http://www.w3.org/2000/svg" xmlns:xlink="http://www.w3.org/1999/xlink">
<g id="graph0" class="graph" transform="scale(1 1) rotate(0) translate(36 428)">
<title>models_diagram</title>
<polygon fill="#ffffff" stroke="transparent" points="-36,36 -36,-428 373,-428 373,36 -36,36"/>
<!-- categories -->
<g id="node1" class="node">
<title>categories</title>
<polygon fill="#add8e6" stroke="transparent" points=".5,-143 .5,-165 95.5,-165 95.5,-143 .5,-143"/>
<polygon fill="none" stroke="#000000" points=".5,-143 .5,-165 95.5,-165 95.5,-143 .5,-143"/>
<text text-anchor="start" x="27.734" y="-151" font-family="Times,serif" font-size="10.00" fill="#000000">categories</text>
<polygon fill="none" stroke="#000000" points=".5,-121 .5,-143 95.5,-143 95.5,-121 .5,-121"/>
<text text-anchor="start" x="5.5" y="-129" font-family="Times,serif" font-size="10.00" fill="#000000">id: NUMBER</text>
<polygon fill="none" stroke="#000000" points=".5,-99 .5,-121 95.5,-121 95.5,-99 .5,-99"/>
<text text-anchor="start" x="5.5" y="-107" font-family="Times,serif" font-size="10.00" fill="#000000">name: STRING</text>
<polygon fill="none" stroke="#000000" points=".5,-77 .5,-99 95.5,-99 95.5,-77 .5,-77"/>
<text text-anchor="start" x="5.092" y="-85" font-family="Times,serif" font-size="10.00" fill="#000000">description: STRING</text>
<polygon fill="none" stroke="#000000" points=".5,-55 .5,-77 95.5,-77 95.5,-55 .5,-55"/>
<text text-anchor="start" x="5.5" y="-63" font-family="Times,serif" font-size="10.00" fill="#000000">createdAt: DATE</text>
<polygon fill="none" stroke="#000000" points=".5,-33 .5,-55 95.5,-55 95.5,-33 .5,-33"/>
<text text-anchor="start" x="5.5" y="-41" font-family="Times,serif" font-size="10.00" fill="#000000">updatedAt: DATE</text>
</g>
<!-- products -->
<g id="node2" class="node">
<title>products</title>
<polygon fill="#add8e6" stroke="transparent" points="232.5,-176 232.5,-198 337.5,-198 337.5,-176 232.5,-176"/>
<polygon fill="none" stroke="#000000" points="232.5,-176 232.5,-198 337.5,-198 337.5,-176 232.5,-176"/>
<text text-anchor="start" x="267.782" y="-184" font-family="Times,serif" font-size="10.00" fill="#000000">products</text>
<polygon fill="none" stroke="#000000" points="232.5,-154 232.5,-176 337.5,-176 337.5,-154 232.5,-154"/>
<text text-anchor="start" x="237.5" y="-162" font-family="Times,serif" font-size="10.00" fill="#000000">id: NUMBER</text>
<polygon fill="none" stroke="#000000" points="232.5,-132 232.5,-154 337.5,-154 337.5,-132 232.5,-132"/>
<text text-anchor="start" x="237.5" y="-140" font-family="Times,serif" font-size="10.00" fill="#000000">name: STRING</text>
<polygon fill="none" stroke="#000000" points="232.5,-110 232.5,-132 337.5,-132 337.5,-110 232.5,-110"/>
<text text-anchor="start" x="237.3715" y="-118" font-family="Times,serif" font-size="10.00" fill="#000000">category_id: NUMBER</text>
<polygon fill="none" stroke="#000000" points="232.5,-88 232.5,-110 337.5,-110 337.5,-88 232.5,-88"/>
<text text-anchor="start" x="237.5" y="-96" font-family="Times,serif" font-size="10.00" fill="#000000">description: STRING</text>
<polygon fill="none" stroke="#000000" points="232.5,-66 232.5,-88 337.5,-88 337.5,-66 232.5,-66"/>
<text text-anchor="start" x="237.5" y="-74" font-family="Times,serif" font-size="10.00" fill="#000000">price: NUMBER</text>
<polygon fill="none" stroke="#000000" points="232.5,-44 232.5,-66 337.5,-66 337.5,-44 232.5,-44"/>
<text text-anchor="start" x="237.5" y="-52" font-family="Times,serif" font-size="10.00" fill="#000000">image: STRING</text>
<polygon fill="none" stroke="#000000" points="232.5,-22 232.5,-44 337.5,-44 337.5,-22 232.5,-22"/>
<text text-anchor="start" x="237.5" y="-30" font-family="Times,serif" font-size="10.00" fill="#000000">createdAt: DATE</text>
<polygon fill="none" stroke="#000000" points="232.5,0 232.5,-22 337.5,-22 337.5,0 232.5,0"/>
<text text-anchor="start" x="237.5" y="-8" font-family="Times,serif" font-size="10.00" fill="#000000">updatedAt: DATE</text>
</g>
<!-- products&#45;&gt;categories -->
<g id="edge1" class="edge">
<title>products&#45;&gt;categories</title>
<path fill="none" stroke="#c2c2c2" stroke-width=".75" d="M225.5547,-99C185.3179,-99 132.7024,-99 95.122,-99"/>
<polygon fill="#c2c2c2" stroke="#c2c2c2" stroke-width=".75" points="225.902,-99.0001 231.9021,-101.7 228.902,-99 231.902,-99 231.902,-99 231.902,-99 228.902,-99 231.902,-96.3 225.902,-99.0001 225.902,-99.0001"/>
</g>
<!-- reviews -->
<g id="node3" class="node">
<title>reviews</title>
<polygon fill="#add8e6" stroke="transparent" points="96.5,-370 96.5,-392 197.5,-392 197.5,-370 96.5,-370"/>
<polygon fill="none" stroke="#000000" points="96.5,-370 96.5,-392 197.5,-392 197.5,-370 96.5,-370"/>
<text text-anchor="start" x="131.453" y="-378" font-family="Times,serif" font-size="10.00" fill="#000000">reviews</text>
<polygon fill="none" stroke="#000000" points="96.5,-348 96.5,-370 197.5,-370 197.5,-348 96.5,-348"/>
<text text-anchor="start" x="101.5" y="-356" font-family="Times,serif" font-size="10.00" fill="#000000">id: NUMBER</text>
<polygon fill="none" stroke="#000000" points="96.5,-326 96.5,-348 197.5,-348 197.5,-326 96.5,-326"/>
<text text-anchor="start" x="101.3105" y="-334" font-family="Times,serif" font-size="10.00" fill="#000000">product_id: NUMBER</text>
<polygon fill="none" stroke="#000000" points="96.5,-304 96.5,-326 197.5,-326 197.5,-304 96.5,-304"/>
<text text-anchor="start" x="101.5" y="-312" font-family="Times,serif" font-size="10.00" fill="#000000">name: STRING</text>
<polygon fill="none" stroke="#000000" points="96.5,-282 96.5,-304 197.5,-304 197.5,-282 96.5,-282"/>
<text text-anchor="start" x="101.5" y="-290" font-family="Times,serif" font-size="10.00" fill="#000000">content: STRING</text>
<polygon fill="none" stroke="#000000" points="96.5,-260 96.5,-282 197.5,-282 197.5,-260 96.5,-260"/>
<text text-anchor="start" x="101.5" y="-268" font-family="Times,serif" font-size="10.00" fill="#000000">score: NUMBER</text>
<polygon fill="none" stroke="#000000" points="96.5,-238 96.5,-260 197.5,-260 197.5,-238 96.5,-238"/>
<text text-anchor="start" x="101.5" y="-246" font-family="Times,serif" font-size="10.00" fill="#000000">createdAt: DATE</text>
<polygon fill="none" stroke="#000000" points="96.5,-216 96.5,-238 197.5,-238 197.5,-216 96.5,-216"/>
<text text-anchor="start" x="101.5" y="-224" font-family="Times,serif" font-size="10.00" fill="#000000">updatedAt: DATE</text>
</g>
</g>
</svg>
